<?xml version="1.0" encoding="UTF-8" standalone="no"?>
<!DOCTYPE svg PUBLIC "-//W3C//DTD SVG 1.1//EN"
 "http://www.w3.org/Graphics/SVG/1.1/DTD/svg11.dtd">
<!-- Generated by graphviz version 12.2.1 (20241206.2353)
 -->
<!-- Title: classes_ai.games Pages: 1 -->
<svg width="1052pt" height="391pt"
 viewBox="0.00 0.00 1052.25 391.00" xmlns="http://www.w3.org/2000/svg" xmlns:xlink="http://www.w3.org/1999/xlink">
<g id="graph0" class="graph" transform="scale(1 1) rotate(0) translate(4 387)">
<title>classes_ai.games</title>
<polygon fill="white" stroke="none" points="-4,4 -4,-387 1048.25,-387 1048.25,4 -4,4"/>
<!-- ai.games.game.Game -->
<g id="node1" class="node">
<title>ai.games.game.Game</title>
<polygon fill="none" stroke="black" points="284.25,-25.25 284.25,-98.75 467.5,-98.75 467.5,-25.25 284.25,-25.25"/>
<text text-anchor="start" x="359.38" y="-81.45" font-family="Times New Roman,serif" font-style="italic" font-size="14.00">Game</text>
<polyline fill="none" stroke="black" points="284.25,-74.25 467.5,-74.25"/>
<text text-anchor="start" x="303.12" y="-56.95" font-family="Times New Roman,serif" font-size="14.00">players : Sequence[Player]</text>
<polyline fill="none" stroke="black" points="284.25,-49.75 467.5,-49.75"/>
<text text-anchor="start" x="292.25" y="-33.45" font-family="Times New Roman,serif" font-style="italic" font-size="13.50">terminalTest</text>
<text text-anchor="start" x="359.75" y="-33.45" font-family="Times New Roman,serif" font-size="14.00">(state: State): bool</text>
</g>
<!-- ai.games.gameTheory.GameTheory -->
<g id="node2" class="node">
<title>ai.games.gameTheory.GameTheory</title>
<polygon fill="none" stroke="black" points="0,-177 0,-382.5 751.75,-382.5 751.75,-177 0,-177"/>
<text text-anchor="start" x="339.88" y="-365.2" font-family="Times New Roman,serif" font-size="14.00">GameTheory</text>
<polyline fill="none" stroke="black" points="0,-358 751.75,-358"/>
<text text-anchor="start" x="278.75" y="-340.7" font-family="Times New Roman,serif" font-size="14.00">currentState</text>
<text text-anchor="start" x="278.75" y="-324.2" font-family="Times New Roman,serif" font-size="14.00">game</text>
<text text-anchor="start" x="278.75" y="-307.7" font-family="Times New Roman,serif" font-size="14.00">waitTurnEvent : Optional[th.Event]</text>
<polyline fill="none" stroke="black" points="0,-300.5 751.75,-300.5"/>
<text text-anchor="start" x="8" y="-283.2" font-family="Times New Roman,serif" font-size="14.00" text-decoration="underline">maxUtility(game: Game, player: Player, state: State, limit: float): float</text>
<text text-anchor="start" x="8" y="-266.7" font-family="Times New Roman,serif" font-size="14.00" text-decoration="underline">maxUtilityAlphaBeta(game: Game, player: Player, state: State, maxSoFar: float, minSoFar: float, visited: set[State], limit: float): float</text>
<text text-anchor="start" x="8" y="-250.2" font-family="Times New Roman,serif" font-size="14.00" text-decoration="underline">minUtility(game: Game, player: Player, state: State, limit: float): float</text>
<text text-anchor="start" x="8" y="-233.7" font-family="Times New Roman,serif" font-size="14.00" text-decoration="underline">minUtilityAlphaBeta(game: Game, player: Player, state: State, maxSoFar: float, minSoFar: float, visited: set[State], limit: float): float</text>
<text text-anchor="start" x="8" y="-217.2" font-family="Times New Roman,serif" font-size="14.00" text-decoration="underline">minimaxAlphaBetaDecision(game: Game, player: Player, visited: set[State], limit: float): Optional[Action]</text>
<text text-anchor="start" x="8" y="-200.7" font-family="Times New Roman,serif" font-size="14.00" text-decoration="underline">minimaxDecision(game: Game, player: Player, limit: float): Optional[Action]</text>
<text text-anchor="start" x="8" y="-184.2" font-family="Times New Roman,serif" font-size="14.00">startGame()</text>
</g>
<!-- ai.games.game.Game&#45;&gt;ai.games.gameTheory.GameTheory -->
<g id="edge2" class="edge">
<title>ai.games.game.Game&#45;&gt;ai.games.gameTheory.GameTheory</title>
<path fill="none" stroke="black" d="M375.88,-99.11C375.88,-117.31 375.88,-140.5 375.88,-164.13"/>
<polygon fill="none" stroke="black" points="375.88,-163.98 379.88,-169.98 375.88,-175.98 371.88,-169.98 375.88,-163.98"/>
<text text-anchor="middle" x="390.88" y="-145.2" font-family="Times New Roman,serif" font-size="14.00" fill="green">game</text>
</g>
<!-- ai.games.player.Player -->
<g id="node3" class="node">
<title>ai.games.player.Player</title>
<polygon fill="none" stroke="black" points="770.25,-237.25 770.25,-322.25 1043.5,-322.25 1043.5,-237.25 770.25,-237.25"/>
<text text-anchor="start" x="889.62" y="-304.95" font-family="Times New Roman,serif" font-style="italic" font-size="14.00">Player</text>
<polyline fill="none" stroke="black" points="770.25,-297.75 1043.5,-297.75"/>
<text text-anchor="start" x="879.5" y="-280.45" font-family="Times New Roman,serif" font-size="14.00">name : str</text>
<polyline fill="none" stroke="black" points="770.25,-273.25 1043.5,-273.25"/>
<text text-anchor="start" x="778.25" y="-256.95" font-family="Times New Roman,serif" font-style="italic" font-size="13.50">chooseAction</text>
<text text-anchor="start" x="851" y="-256.95" font-family="Times New Roman,serif" font-size="14.00">(game: Game): Optional[Action]</text>
<text text-anchor="start" x="778.25" y="-242.95" font-family="Times New Roman,serif" font-style="italic" font-size="13.50">getUtility</text>
<text text-anchor="start" x="829.25" y="-242.95" font-family="Times New Roman,serif" font-size="14.00">(state: State): float</text>
</g>
<!-- ai.games.player.PlayerAI -->
<g id="node4" class="node">
<title>ai.games.player.PlayerAI</title>
<polygon fill="none" stroke="black" points="769.5,-0.5 769.5,-123.5 1044.25,-123.5 1044.25,-0.5 769.5,-0.5"/>
<text text-anchor="start" x="882.5" y="-106.2" font-family="Times New Roman,serif" font-style="italic" font-size="14.00">PlayerAI</text>
<polyline fill="none" stroke="black" points="769.5,-99 1044.25,-99"/>
<text text-anchor="start" x="843.5" y="-81.7" font-family="Times New Roman,serif" font-size="14.00">decisionAlgorithm</text>
<text text-anchor="start" x="843.5" y="-65.2" font-family="Times New Roman,serif" font-size="14.00">limit : float</text>
<text text-anchor="start" x="843.5" y="-48.7" font-family="Times New Roman,serif" font-size="14.00">name : str</text>
<text text-anchor="start" x="843.5" y="-32.2" font-family="Times New Roman,serif" font-size="14.00">visited : set</text>
<polyline fill="none" stroke="black" points="769.5,-25 1044.25,-25"/>
<text text-anchor="start" x="777.5" y="-7.7" font-family="Times New Roman,serif" font-size="14.00">chooseAction(game: Game): Optional[Action]</text>
</g>
<!-- ai.games.player.PlayerAI&#45;&gt;ai.games.player.Player -->
<g id="edge1" class="edge">
<title>ai.games.player.PlayerAI&#45;&gt;ai.games.player.Player</title>
<path fill="none" stroke="black" d="M906.88,-123.96C906.88,-156 906.88,-194.9 906.88,-225.69"/>
<polygon fill="none" stroke="black" points="903.38,-225.55 906.88,-235.55 910.38,-225.55 903.38,-225.55"/>
</g>
</g>
</svg>
