<svg width="642" height="521" xmlns="http://www.w3.org/2000/svg" xmlns:xlink="http://www.w3.org/1999/xlink" xml:space="preserve" overflow="hidden"><defs><clipPath id="clip0"><rect x="88" y="502" width="642" height="521"/></clipPath></defs><g clip-path="url(#clip0)" transform="translate(-88 -502)"><path d="M-3.54574 3.54574-3.54574-516.791 638.454-516.791 638.454 3.54574-3.54574 3.54574Z" fill="#FFFFFF" transform="matrix(1 0 0 1.00016 91.5457 1019.16)"/><path d="M0-0.443217 0-43.8785 47.8675-43.8785 47.8675-0.443217 0-0.443217Z" stroke="#000000" stroke-width="0.886434" fill="none" transform="matrix(1 0 0 1.00016 91.5457 1019.16)"/><text font-family="Times New Roman,Times New Roman_MSFontService,sans-serif" font-style="italic" font-weight="400" font-size="14" transform="matrix(0.886434 0 0 0.886574 99.0804 991)">Action</text><path d="M0-22.1609 47.6458-22.1609" stroke="#000000" stroke-width="0.886434" fill="none" transform="matrix(1 0 0 1.00016 91.5457 1019.16)"/><path d="M0-22.1609 47.6458-22.1609" stroke="#000000" stroke-width="0.886434" fill="none" transform="matrix(1 0 0 1.00016 91.5457 1019.16)"/><path d="M50.6331-168.423 50.6331-248.202 296.849-248.202 296.849-168.423 50.6331-168.423Z" stroke="#000000" stroke-width="0.886434" fill="none" transform="matrix(1 0 0 1.00016 91.5457 1019.16)"/><text font-family="Times New Roman,Times New Roman_MSFontService,sans-serif" font-style="italic" font-weight="400" font-size="14" transform="matrix(0.886434 0 0 0.886574 250.661 786)">Agent</text><path d="M50.6331-226.484 296.849-226.484" stroke="#000000" stroke-width="0.886434" fill="none" transform="matrix(1 0 0 1.00016 91.5457 1019.16)"/><text font-family="Times New Roman,Times New Roman_MSFontService,sans-serif" font-weight="400" font-size="14" transform="matrix(0.886434 0 0 0.886574 249.996 808)">sensor</text><path d="M50.6331-204.766 296.849-204.766" stroke="#000000" stroke-width="0.886434" fill="none" transform="matrix(1 0 0 1.00016 91.5457 1019.16)"/><text font-family="Times New Roman,Times New Roman_MSFontService,sans-serif" font-weight="400" font-size="14" transform="matrix(0.886434 0 0 0.886574 149.27 830)">executeAction</text><text font-family="Times New Roman,Times New Roman_MSFontService,sans-serif" font-weight="400" font-size="14" transform="matrix(0.886434 0 0 0.886574 220.937 830)">(</text><text font-family="Times New Roman,Times New Roman_MSFontService,sans-serif" font-weight="400" font-size="14" transform="matrix(0.886434 0 0 0.886574 225.07 830)">action</text><text font-family="Times New Roman,Times New Roman_MSFontService,sans-serif" font-weight="400" font-size="14" transform="matrix(0.886434 0 0 0.886574 255.392 830)">: </text><text font-family="Times New Roman,Times New Roman_MSFontService,sans-serif" font-weight="400" font-size="14" transform="matrix(0.886434 0 0 0.886574 261.943 830)">Action</text><text font-family="Times New Roman,Times New Roman_MSFontService,sans-serif" font-weight="400" font-size="14" transform="matrix(0.886434 0 0 0.886574 295.719 830)">, </text><text font-family="Times New Roman,Times New Roman_MSFontService,sans-serif" font-weight="400" font-size="14" transform="matrix(0.886434 0 0 0.886574 301.924 830)">task</text><text font-family="Times New Roman,Times New Roman_MSFontService,sans-serif" font-weight="400" font-size="14" transform="matrix(0.886434 0 0 0.886574 321.915 830)">: </text><text font-family="Times New Roman,Times New Roman_MSFontService,sans-serif" font-weight="400" font-size="14" transform="matrix(0.886434 0 0 0.886574 328.465 830)">Task</text><text font-family="Times New Roman,Times New Roman_MSFontService,sans-serif" font-weight="400" font-size="14" transform="matrix(0.886434 0 0 0.886574 351.722 830)">)</text><text font-family="Times New Roman,Times New Roman_MSFontService,sans-serif" font-weight="400" font-size="14" transform="matrix(0.886434 0 0 0.886574 149.27 844)">percept</text><text font-family="Times New Roman,Times New Roman_MSFontService,sans-serif" font-weight="400" font-size="14" transform="matrix(0.886434 0 0 0.886574 185.786 844)">(</text><text font-family="Times New Roman,Times New Roman_MSFontService,sans-serif" font-weight="400" font-size="14" transform="matrix(0.886434 0 0 0.886574 189.918 844)">environment</text><text font-family="Times New Roman,Times New Roman_MSFontService,sans-serif" font-weight="400" font-size="14" transform="matrix(0.886434 0 0 0.886574 252.641 844)">: </text><text font-family="Times New Roman,Times New Roman_MSFontService,sans-serif" font-weight="400" font-size="14" transform="matrix(0.886434 0 0 0.886574 259.192 844)">Environment</text><text font-family="Times New Roman,Times New Roman_MSFontService,sans-serif" font-weight="400" font-size="14" transform="matrix(0.886434 0 0 0.886574 323.987 844)">): </text><text font-family="Times New Roman,Times New Roman_MSFontService,sans-serif" font-weight="400" font-size="14" transform="matrix(0.886434 0 0 0.886574 334.67 844)">Perception</text><path d="M313.018-175.736 313.018-240.889 548.596-240.889 548.596-175.736 313.018-175.736Z" stroke="#000000" stroke-width="0.886434" fill="none" transform="matrix(1 0 0 1.00016 91.5457 1019.16)"/><text font-family="Times New Roman,Times New Roman_MSFontService,sans-serif" font-style="italic" font-weight="400" font-size="14" transform="matrix(0.886434 0 0 0.886574 490.778 794)">Environment</text><path d="M313.018-219.171 548.596-219.171" stroke="#000000" stroke-width="0.886434" fill="none" transform="matrix(1 0 0 1.00016 91.5457 1019.16)"/><text font-family="Times New Roman,Times New Roman_MSFontService,sans-serif" font-weight="400" font-size="14" transform="matrix(0.886434 0 0 0.886574 493.437 815)">currentState</text><path d="M313.018-197.453 548.596-197.453" stroke="#000000" stroke-width="0.886434" fill="none" transform="matrix(1 0 0 1.00016 91.5457 1019.16)"/><text font-family="Times New Roman,Times New Roman_MSFontService,sans-serif" font-weight="400" font-size="14" transform="matrix(0.886434 0 0 0.886574 411.655 837)">evolveState</text><text font-family="Times New Roman,Times New Roman_MSFontService,sans-serif" font-weight="400" font-size="14" transform="matrix(0.886434 0 0 0.886574 469.548 837)">(</text><text font-family="Times New Roman,Times New Roman_MSFontService,sans-serif" font-weight="400" font-size="14" transform="matrix(0.886434 0 0 0.886574 473.681 837)">action</text><text font-family="Times New Roman,Times New Roman_MSFontService,sans-serif" font-weight="400" font-size="14" transform="matrix(0.886434 0 0 0.886574 504.003 837)">: </text><text font-family="Times New Roman,Times New Roman_MSFontService,sans-serif" font-weight="400" font-size="14" transform="matrix(0.886434 0 0 0.886574 510.554 837)">Action</text><text font-family="Times New Roman,Times New Roman_MSFontService,sans-serif" font-weight="400" font-size="14" transform="matrix(0.886434 0 0 0.886574 544.33 837)">, </text><text font-family="Times New Roman,Times New Roman_MSFontService,sans-serif" font-weight="400" font-size="14" transform="matrix(0.886434 0 0 0.886574 550.535 837)">task</text><text font-family="Times New Roman,Times New Roman_MSFontService,sans-serif" font-weight="400" font-size="14" transform="matrix(0.886434 0 0 0.886574 570.526 837)">: </text><text font-family="Times New Roman,Times New Roman_MSFontService,sans-serif" font-weight="400" font-size="14" transform="matrix(0.886434 0 0 0.886574 577.076 837)">Task</text><text font-family="Times New Roman,Times New Roman_MSFontService,sans-serif" font-weight="400" font-size="14" transform="matrix(0.886434 0 0 0.886574 600.333 837)">): </text><text font-family="Times New Roman,Times New Roman_MSFontService,sans-serif" font-weight="400" font-size="14" transform="matrix(0.886434 0 0 0.886574 611.016 837)">State</text><path d="M377.399-295.626 377.399-400.225 634.909-400.225 634.909-295.626 377.399-295.626Z" stroke="#000000" stroke-width="0.886434" fill="none" transform="matrix(1 0 0 1.00016 91.5457 1019.16)"/><text font-family="Times New Roman,Times New Roman_MSFontService,sans-serif" font-style="italic" font-weight="400" font-size="14" transform="matrix(0.886434 0 0 0.886574 586.398 634)">Task</text><path d="M377.399-378.507 634.909-378.507" stroke="#000000" stroke-width="0.886434" fill="none" transform="matrix(1 0 0 1.00016 91.5457 1019.16)"/><text font-family="Times New Roman,Times New Roman_MSFontService,sans-serif" font-weight="400" font-size="14" transform="matrix(0.886434 0 0 0.886574 535.871 656)">agents </text><text font-family="Times New Roman,Times New Roman_MSFontService,sans-serif" font-weight="400" font-size="14" transform="matrix(0.886434 0 0 0.886574 570.677 656)">: </text><text font-family="Times New Roman,Times New Roman_MSFontService,sans-serif" font-weight="400" font-size="14" transform="matrix(0.886434 0 0 0.886574 577.228 656)">Sequence</text><text font-family="Times New Roman,Times New Roman_MSFontService,sans-serif" font-weight="400" font-size="14" transform="matrix(0.886434 0 0 0.886574 624.777 656)">[</text><text font-family="Times New Roman,Times New Roman_MSFontService,sans-serif" font-weight="400" font-size="14" transform="matrix(0.886434 0 0 0.886574 628.91 656)">Agent</text><text font-family="Times New Roman,Times New Roman_MSFontService,sans-serif" font-weight="400" font-size="14" transform="matrix(0.886434 0 0 0.886574 659.238 656)">]</text><text font-family="Times New Roman,Times New Roman_MSFontService,sans-serif" font-weight="400" font-size="14" transform="matrix(0.886434 0 0 0.886574 535.871 671)">environment</text><text font-family="Times New Roman,Times New Roman_MSFontService,sans-serif" font-weight="400" font-size="14" transform="matrix(0.886434 0 0 0.886574 535.871 685)">initialState</text><path d="M377.399-327.537 634.909-327.537" stroke="#000000" stroke-width="0.886434" fill="none" transform="matrix(1 0 0 1.00016 91.5457 1019.16)"/><text font-family="Times New Roman,Times New Roman_MSFontService,sans-serif" font-style="italic" font-weight="400" font-size="13.6" transform="matrix(0.886434 0 0 0.886574 476.037 706)">getActionsFromState</text><text font-family="Times New Roman,Times New Roman_MSFontService,sans-serif" font-weight="400" font-size="14" transform="matrix(0.886434 0 0 0.886574 577.09 706)">(</text><text font-family="Times New Roman,Times New Roman_MSFontService,sans-serif" font-weight="400" font-size="14" transform="matrix(0.886434 0 0 0.886574 581.223 706)">state</text><text font-family="Times New Roman,Times New Roman_MSFontService,sans-serif" font-weight="400" font-size="14" transform="matrix(0.886434 0 0 0.886574 603.964 706)">: </text><text font-family="Times New Roman,Times New Roman_MSFontService,sans-serif" font-weight="400" font-size="14" transform="matrix(0.886434 0 0 0.886574 610.515 706)">State</text><text font-family="Times New Roman,Times New Roman_MSFontService,sans-serif" font-weight="400" font-size="14" transform="matrix(0.886434 0 0 0.886574 635.329 706)">): </text><text font-family="Times New Roman,Times New Roman_MSFontService,sans-serif" font-weight="400" font-size="14" transform="matrix(0.886434 0 0 0.886574 646.012 706)">list</text><text font-family="Times New Roman,Times New Roman_MSFontService,sans-serif" font-weight="400" font-size="14" transform="matrix(0.886434 0 0 0.886574 661.185 706)">[</text><text font-family="Times New Roman,Times New Roman_MSFontService,sans-serif" font-weight="400" font-size="14" transform="matrix(0.886434 0 0 0.886574 665.318 706)">Action</text><text font-family="Times New Roman,Times New Roman_MSFontService,sans-serif" font-weight="400" font-size="14" transform="matrix(0.886434 0 0 0.886574 699.094 706)">]</text><text font-family="Times New Roman,Times New Roman_MSFontService,sans-serif" font-style="italic" font-weight="400" font-size="13.6" transform="matrix(0.886434 0 0 0.886574 476.037 718)">transitionModel</text><text font-family="Times New Roman,Times New Roman_MSFontService,sans-serif" font-weight="400" font-size="14" transform="matrix(0.886434 0 0 0.886574 553.821 718)">(</text><text font-family="Times New Roman,Times New Roman_MSFontService,sans-serif" font-weight="400" font-size="14" transform="matrix(0.886434 0 0 0.886574 557.954 718)">state</text><text font-family="Times New Roman,Times New Roman_MSFontService,sans-serif" font-weight="400" font-size="14" transform="matrix(0.886434 0 0 0.886574 580.696 718)">: </text><text font-family="Times New Roman,Times New Roman_MSFontService,sans-serif" font-weight="400" font-size="14" transform="matrix(0.886434 0 0 0.886574 587.246 718)">State</text><text font-family="Times New Roman,Times New Roman_MSFontService,sans-serif" font-weight="400" font-size="14" transform="matrix(0.886434 0 0 0.886574 612.06 718)">, </text><text font-family="Times New Roman,Times New Roman_MSFontService,sans-serif" font-weight="400" font-size="14" transform="matrix(0.886434 0 0 0.886574 618.265 718)">action</text><text font-family="Times New Roman,Times New Roman_MSFontService,sans-serif" font-weight="400" font-size="14" transform="matrix(0.886434 0 0 0.886574 648.587 718)">: </text><text font-family="Times New Roman,Times New Roman_MSFontService,sans-serif" font-weight="400" font-size="14" transform="matrix(0.886434 0 0 0.886574 655.138 718)">Action</text><text font-family="Times New Roman,Times New Roman_MSFontService,sans-serif" font-weight="400" font-size="14" transform="matrix(0.886434 0 0 0.886574 688.914 718)">): </text><text font-family="Times New Roman,Times New Roman_MSFontService,sans-serif" font-weight="400" font-size="14" transform="matrix(0.886434 0 0 0.886574 699.597 718)">State</text><path d="M448.279-241.172C455.485-254.345 464.093-270.088 472.434-285.343" stroke="#000000" stroke-width="0.886434" fill="none" transform="matrix(1 0 0 1.00016 91.5457 1019.16)"/><path d="M472.372-285.237 478.036-288.206 477.469-294.571 471.814-291.601 472.372-285.237Z" stroke="#000000" stroke-width="0.886434" fill="none" transform="matrix(1 0 0 1.00016 91.5457 1019.16)"/><text fill="#008000" font-family="Times New Roman,Times New Roman_MSFontService,sans-serif" font-weight="400" font-size="14" transform="matrix(0.886434 0 0 0.886574 559.247 752)">environment</text><path d="M509.806-0.443217 509.806-43.8785 575.189-43.8785 575.189-0.443217 509.806-0.443217Z" stroke="#000000" stroke-width="0.886434" fill="none" transform="matrix(1 0 0 1.00016 91.5457 1019.16)"/><text font-family="Times New Roman,Times New Roman_MSFontService,sans-serif" font-style="italic" font-weight="400" font-size="14" transform="matrix(0.886434 0 0 0.886574 608.443 991)">Perception</text><path d="M509.806-22.1609 575.189-22.1609" stroke="#000000" stroke-width="0.886434" fill="none" transform="matrix(1 0 0 1.00016 91.5457 1019.16)"/><path d="M509.806-22.1609 575.189-22.1609" stroke="#000000" stroke-width="0.886434" fill="none" transform="matrix(1 0 0 1.00016 91.5457 1019.16)"/><path d="M518.564-77.563 518.564-120.998 566.432-120.998 566.432-77.563 518.564-77.563Z" stroke="#000000" stroke-width="0.886434" fill="none" transform="matrix(1 0 0 1.00016 91.5457 1019.16)"/><text font-family="Times New Roman,Times New Roman_MSFontService,sans-serif" font-style="italic" font-weight="400" font-size="14" transform="matrix(0.886434 0 0 0.886574 622.077 913)">State</text><path d="M518.564-99.2806 566.432-99.2806" stroke="#000000" stroke-width="0.886434" fill="none" transform="matrix(1 0 0 1.00016 91.5457 1019.16)"/><path d="M518.564-99.2806 566.432-99.2806" stroke="#000000" stroke-width="0.886434" fill="none" transform="matrix(1 0 0 1.00016 91.5457 1019.16)"/><path d="M542.498-44.0381C542.498-51.2448 542.498-59.4709 542.498-67.2981" stroke="#000000" stroke-width="0.886434" fill="none" transform="matrix(1 0 0 1.00016 91.5457 1019.16)"/><path d="M539.395-67.0499 542.498-75.9142 545.6-67.0499 539.395-67.0499Z" stroke="#000000" stroke-width="0.886434" fill="none" transform="matrix(1 0 0 1.00016 91.5457 1019.16)"/><path d="M50.3051-77.563 50.3051-120.998 297.177-120.998 297.177-77.563 50.3051-77.563Z" stroke="#000000" stroke-width="0.886434" fill="none" transform="matrix(1 0 0 1.00016 91.5457 1019.16)"/><text font-family="Times New Roman,Times New Roman_MSFontService,sans-serif" font-style="italic" font-weight="400" font-size="14" transform="matrix(0.886434 0 0 0.886574 248.994 913)">Sensor</text><path d="M50.3051-99.2806 297.177-99.2806" stroke="#000000" stroke-width="0.886434" fill="none" transform="matrix(1 0 0 1.00016 91.5457 1019.16)"/><path d="M50.3051-99.2806 297.177-99.2806" stroke="#000000" stroke-width="0.886434" fill="none" transform="matrix(1 0 0 1.00016 91.5457 1019.16)"/><text font-family="Times New Roman,Times New Roman_MSFontService,sans-serif" font-style="italic" font-weight="400" font-size="13.6" transform="matrix(0.886434 0 0 0.886574 148.942 934)">percept</text><text font-family="Times New Roman,Times New Roman_MSFontService,sans-serif" font-weight="400" font-size="14" transform="matrix(0.886434 0 0 0.886574 184.843 934)">(</text><text font-family="Times New Roman,Times New Roman_MSFontService,sans-serif" font-weight="400" font-size="14" transform="matrix(0.886434 0 0 0.886574 188.976 934)">environment</text><text font-family="Times New Roman,Times New Roman_MSFontService,sans-serif" font-weight="400" font-size="14" transform="matrix(0.886434 0 0 0.886574 251.699 934)">: </text><text font-family="Times New Roman,Times New Roman_MSFontService,sans-serif" font-weight="400" font-size="14" transform="matrix(0.886434 0 0 0.886574 258.249 934)">Environment</text><text font-family="Times New Roman,Times New Roman_MSFontService,sans-serif" font-weight="400" font-size="14" transform="matrix(0.886434 0 0 0.886574 323.044 934)">): </text><text font-family="Times New Roman,Times New Roman_MSFontService,sans-serif" font-weight="400" font-size="14" transform="matrix(0.886434 0 0 0.886574 333.728 934)">Perception</text><path d="M173.741-121.362C173.741-131.547 173.741-144.241 173.741-156.722" stroke="#000000" stroke-width="0.886434" fill="none" transform="matrix(1 0 0 1.00016 91.5457 1019.16)"/><path d="M173.741-156.606 177.287-161.925 173.741-167.244 170.195-161.925 173.741-156.606Z" stroke="#000000" stroke-width="0.886434" fill="none" transform="matrix(1 0 0 1.00016 91.5457 1019.16)"/><text fill="#008000" font-family="Times New Roman,Times New Roman_MSFontService,sans-serif" font-weight="400" font-size="14" transform="matrix(0.886434 0 0 0.886574 264.723 879)">sensor</text><path d="M520.434-121.362C506.615-134.623 488.39-152.13 471.973-167.891" stroke="#000000" stroke-width="0.886434" fill="none" transform="matrix(1 0 0 1.00016 91.5457 1019.16)"/><path d="M472.088-167.775 470.714-174.016 464.421-175.151 465.803-168.901 472.088-167.775Z" stroke="#000000" stroke-width="0.886434" fill="none" transform="matrix(1 0 0 1.00016 91.5457 1019.16)"/><text fill="#008000" font-family="Times New Roman,Times New Roman_MSFontService,sans-serif" font-weight="400" font-size="14" transform="matrix(0.886434 0 0 0.886574 593.669 879)">currentState</text><path d="M557.709-121.326C560.572-126.361 563.143-131.884 564.659-137.397 571.396-161.898 590.179-131.449 556.681-248.645 553.188-260.851 548.135-273.323 542.551-285.095" stroke="#000000" stroke-width="0.886434" fill="none" transform="matrix(1 0 0 1.00016 91.5457 1019.16)"/><path d="M542.604-284.997 543.42-291.335 537.888-294.527 537.064-288.189 542.604-284.997Z" stroke="#000000" stroke-width="0.886434" fill="none" transform="matrix(1 0 0 1.00016 91.5457 1019.16)"/><text fill="#008000" font-family="Times New Roman,Times New Roman_MSFontService,sans-serif" font-weight="400" font-size="14" transform="matrix(0.886434 0 0 0.886574 666.321 815)">initialState</text><path d="M64.2665-0.443217 64.2665-43.8785 283.216-43.8785 283.216-0.443217 64.2665-0.443217Z" stroke="#000000" stroke-width="0.886434" fill="none" transform="matrix(1 0 0 1.00016 91.5457 1019.16)"/><text font-family="Times New Roman,Times New Roman_MSFontService,sans-serif" font-weight="400" font-size="14" transform="matrix(0.886434 0 0 0.886574 237.027 991)">StateSensor</text><path d="M64.2665-22.1609 283.216-22.1609" stroke="#000000" stroke-width="0.886434" fill="none" transform="matrix(1 0 0 1.00016 91.5457 1019.16)"/><path d="M64.2665-22.1609 283.216-22.1609" stroke="#000000" stroke-width="0.886434" fill="none" transform="matrix(1 0 0 1.00016 91.5457 1019.16)"/><text font-family="Times New Roman,Times New Roman_MSFontService,sans-serif" font-weight="400" font-size="14" transform="matrix(0.886434 0 0 0.886574 162.904 1012)">percept</text><text font-family="Times New Roman,Times New Roman_MSFontService,sans-serif" font-weight="400" font-size="14" transform="matrix(0.886434 0 0 0.886574 199.419 1012)">(</text><text font-family="Times New Roman,Times New Roman_MSFontService,sans-serif" font-weight="400" font-size="14" transform="matrix(0.886434 0 0 0.886574 203.552 1012)">environment</text><text font-family="Times New Roman,Times New Roman_MSFontService,sans-serif" font-weight="400" font-size="14" transform="matrix(0.886434 0 0 0.886574 266.275 1012)">: </text><text font-family="Times New Roman,Times New Roman_MSFontService,sans-serif" font-weight="400" font-size="14" transform="matrix(0.886434 0 0 0.886574 272.825 1012)">Environment</text><text font-family="Times New Roman,Times New Roman_MSFontService,sans-serif" font-weight="400" font-size="14" transform="matrix(0.886434 0 0 0.886574 337.62 1012)">): </text><text font-family="Times New Roman,Times New Roman_MSFontService,sans-serif" font-weight="400" font-size="14" transform="matrix(0.886434 0 0 0.886574 348.303 1012)">State</text><path d="M173.741-44.0381C173.741-51.2448 173.741-59.4709 173.741-67.2981" stroke="#000000" stroke-width="0.886434" fill="none" transform="matrix(1 0 0 1.00016 91.5457 1019.16)"/><path d="M170.639-67.0499 173.741-75.9142 176.844-67.0499 170.639-67.0499Z" stroke="#000000" stroke-width="0.886434" fill="none" transform="matrix(1 0 0 1.00016 91.5457 1019.16)"/><path d="M472.133-447.649 472.133-512.802 540.175-512.802 540.175-447.649 472.133-447.649Z" stroke="#000000" stroke-width="0.886434" fill="none" transform="matrix(1 0 0 1.00016 91.5457 1019.16)"/><text font-family="Times New Roman,Times New Roman_MSFontService,sans-serif" font-style="italic" font-weight="400" font-size="14" transform="matrix(0.886434 0 0 0.886574 570.77 522)">TaskSolver</text><path d="M472.133-491.085 540.175-491.085" stroke="#000000" stroke-width="0.886434" fill="none" transform="matrix(1 0 0 1.00016 91.5457 1019.16)"/><text font-family="Times New Roman,Times New Roman_MSFontService,sans-serif" font-weight="400" font-size="14" transform="matrix(0.886434 0 0 0.886574 588.055 543)">task</text><path d="M472.133-469.367 540.175-469.367" stroke="#000000" stroke-width="0.886434" fill="none" transform="matrix(1 0 0 1.00016 91.5457 1019.16)"/><path d="M506.154-400.402C506.154-412.139 506.154-424.505 506.154-435.86" stroke="#000000" stroke-width="0.886434" fill="none" transform="matrix(1 0 0 1.00016 91.5457 1019.16)"/><path d="M506.154-435.842 509.7-441.161 506.154-446.479 502.608-441.161 506.154-435.842Z" stroke="#000000" stroke-width="0.886434" fill="none" transform="matrix(1 0 0 1.00016 91.5457 1019.16)"/><text fill="#008000" font-family="Times New Roman,Times New Roman_MSFontService,sans-serif" font-weight="400" font-size="14" transform="matrix(0.886434 0 0 0.886574 597.349 600)">task</text></g></svg>