<?xml version="1.0" encoding="UTF-8" standalone="no"?>
<!DOCTYPE svg PUBLIC "-//W3C//DTD SVG 1.1//EN"
 "http://www.w3.org/Graphics/SVG/1.1/DTD/svg11.dtd">
<!-- Generated by graphviz version 12.2.1 (20241206.2353)
 -->
<!-- Title: classes_ai Pages: 1 -->
<svg width="2183pt" height="1032pt"
 viewBox="0.00 0.00 2183.12 1032.00" xmlns="http://www.w3.org/2000/svg" xmlns:xlink="http://www.w3.org/1999/xlink">
<g id="graph0" class="graph" transform="scale(1 1) rotate(0) translate(4 1028)">
<title>classes_ai</title>
<polygon fill="white" stroke="none" points="-4,4 -4,-1028 2179.12,-1028 2179.12,4 -4,4"/>
<!-- ai.core.action.Action -->
<g id="node1" class="node">
<title>ai.core.action.Action</title>
<polygon fill="none" stroke="black" points="883.88,-37.5 883.88,-86.5 937.88,-86.5 937.88,-37.5 883.88,-37.5"/>
<text text-anchor="start" x="892.38" y="-69.2" font-family="Times New Roman,serif" font-size="14.00">Action</text>
<polyline fill="none" stroke="black" points="883.88,-62 937.62,-62"/>
<polyline fill="none" stroke="black" points="883.88,-62 937.62,-62"/>
<text text-anchor="start" x="908.88" y="-44.7" font-family="Times New Roman,serif" font-size="14.00"> </text>
</g>
<!-- ai.core.agent.Agent -->
<g id="node2" class="node">
<title>ai.core.agent.Agent</title>
<polygon fill="none" stroke="black" points="1645,-357.75 1645,-447.75 1922.75,-447.75 1922.75,-357.75 1645,-357.75"/>
<text text-anchor="start" x="1767.38" y="-430.45" font-family="Times New Roman,serif" font-size="14.00">Agent</text>
<polyline fill="none" stroke="black" points="1645,-423.25 1922.75,-423.25"/>
<text text-anchor="start" x="1766.62" y="-405.95" font-family="Times New Roman,serif" font-size="14.00">sensor</text>
<polyline fill="none" stroke="black" points="1645,-398.75 1922.75,-398.75"/>
<text text-anchor="start" x="1653" y="-381.45" font-family="Times New Roman,serif" font-size="14.00">executeAction(action: Action, task: &#39;Task&#39;)</text>
<text text-anchor="start" x="1653" y="-364.95" font-family="Times New Roman,serif" font-size="14.00">percept(environment: Environment): Perception</text>
</g>
<!-- ai.problems.problemSolving.ProblemSolving -->
<g id="node12" class="node">
<title>ai.problems.problemSolving.ProblemSolving</title>
<polygon fill="none" stroke="black" points="1078.38,-559 1078.38,-896.5 1895.38,-896.5 1895.38,-559 1078.38,-559"/>
<text text-anchor="start" x="1442.62" y="-879.2" font-family="Times New Roman,serif" font-size="14.00">ProblemSolving</text>
<polyline fill="none" stroke="black" points="1078.38,-872 1895.38,-872"/>
<text text-anchor="start" x="1417.12" y="-854.7" font-family="Times New Roman,serif" font-size="14.00">CUTOFF : NoneType</text>
<text text-anchor="start" x="1417.12" y="-838.2" font-family="Times New Roman,serif" font-size="14.00">NO_SOLUTIONS : tuple</text>
<text text-anchor="start" x="1417.12" y="-821.7" font-family="Times New Roman,serif" font-size="14.00">agent</text>
<text text-anchor="start" x="1417.12" y="-805.2" font-family="Times New Roman,serif" font-size="14.00">currenState</text>
<text text-anchor="start" x="1417.12" y="-788.7" font-family="Times New Roman,serif" font-size="14.00">problem</text>
<polyline fill="none" stroke="black" points="1078.38,-781.5 1895.38,-781.5"/>
<text text-anchor="start" x="1086.38" y="-764.2" font-family="Times New Roman,serif" font-size="14.00">aStarSearch(problem: Problem, stopEvent: Event): SolutionType</text>
<text text-anchor="start" x="1086.38" y="-747.7" font-family="Times New Roman,serif" font-size="14.00">backtrackSolution(node: ProblemNode): SolutionType</text>
<text text-anchor="start" x="1086.38" y="-731.2" font-family="Times New Roman,serif" font-size="14.00">bestFirstSearch(problem: Problem, stopEvent: Event, costFunction: CostFunctionType): SolutionType</text>
<text text-anchor="start" x="1086.38" y="-714.7" font-family="Times New Roman,serif" font-size="14.00">breadthFirstSearch(problem: Problem, stopEvent: Event): SolutionType</text>
<text text-anchor="start" x="1086.38" y="-698.2" font-family="Times New Roman,serif" font-size="14.00">depthFirstSearch(problem: Problem, stopEvent: Event): SolutionType</text>
<text text-anchor="start" x="1086.38" y="-681.7" font-family="Times New Roman,serif" font-size="14.00">depthFirstSearchRecursive(problem: Problem, stopEvent: Event): SolutionType</text>
<text text-anchor="start" x="1086.38" y="-665.2" font-family="Times New Roman,serif" font-size="14.00">depthFirstSearchRecursiveHelper(problem: Problem, stopEvent: Event, node: ProblemNode, explored: set[State]): SolutionType</text>
<text text-anchor="start" x="1086.38" y="-648.7" font-family="Times New Roman,serif" font-size="14.00">depthFirstSearchRecursiveLimited(problem: Problem, stopEvent: Event, limit: int): SolutionType</text>
<text text-anchor="start" x="1086.38" y="-632.2" font-family="Times New Roman,serif" font-size="14.00">depthFirstSearchRecursiveLimitedHelper(problem: Problem, stopEvent: Event, node: ProblemNode, explored: set[State], limit: int): SolutionType</text>
<text text-anchor="start" x="1086.38" y="-615.7" font-family="Times New Roman,serif" font-size="14.00">greedySearch(problem: Problem, stopEvent: Event): SolutionType</text>
<text text-anchor="start" x="1086.38" y="-599.2" font-family="Times New Roman,serif" font-size="14.00">iterativeDeepeningSearch(problem: Problem, stopEvent: Event): SolutionType</text>
<text text-anchor="start" x="1086.38" y="-582.7" font-family="Times New Roman,serif" font-size="14.00">simpleProblemSolvingAgent(search: SearchAlgorithmType, stopEvent: Event, executeSolution: bool, print_problem: bool)</text>
<text text-anchor="start" x="1086.38" y="-566.2" font-family="Times New Roman,serif" font-size="14.00">uniformSearch(problem: Problem, stopEvent: Event): SolutionType</text>
</g>
<!-- ai.core.agent.Agent&#45;&gt;ai.problems.problemSolving.ProblemSolving -->
<g id="edge9" class="edge">
<title>ai.core.agent.Agent&#45;&gt;ai.problems.problemSolving.ProblemSolving</title>
<path fill="none" stroke="black" d="M1743.2,-447.98C1718.38,-474.98 1684.83,-511.47 1650.2,-549.13"/>
<polygon fill="none" stroke="black" points="1650.11,-549.23 1648.99,-556.35 1641.98,-558.06 1643.1,-550.94 1650.11,-549.23"/>
<text text-anchor="middle" x="1685.34" y="-527.2" font-family="Times New Roman,serif" font-size="14.00" fill="green">agent</text>
</g>
<!-- ai.core.environment.Environment -->
<g id="node3" class="node">
<title>ai.core.environment.Environment</title>
<polygon fill="none" stroke="black" points="486,-366 486,-439.5 751.75,-439.5 751.75,-366 486,-366"/>
<text text-anchor="start" x="583.25" y="-422.2" font-family="Times New Roman,serif" font-size="14.00">Environment</text>
<polyline fill="none" stroke="black" points="486,-415 751.75,-415"/>
<text text-anchor="start" x="586.25" y="-397.7" font-family="Times New Roman,serif" font-size="14.00">currentState</text>
<polyline fill="none" stroke="black" points="486,-390.5 751.75,-390.5"/>
<text text-anchor="start" x="494" y="-373.2" font-family="Times New Roman,serif" font-size="14.00">evolveState(action: Action, task: &#39;Task&#39;): State</text>
</g>
<!-- ai.core.task.Task -->
<g id="node16" class="node">
<title>ai.core.task.Task</title>
<polygon fill="none" stroke="black" points="769.62,-668.75 769.62,-786.75 1060.12,-786.75 1060.12,-668.75 769.62,-668.75"/>
<text text-anchor="start" x="902.12" y="-769.45" font-family="Times New Roman,serif" font-size="14.00">Task</text>
<polyline fill="none" stroke="black" points="769.62,-762.25 1060.12,-762.25"/>
<text text-anchor="start" x="845.12" y="-744.95" font-family="Times New Roman,serif" font-size="14.00">agents : Sequence[Agent]</text>
<text text-anchor="start" x="845.12" y="-728.45" font-family="Times New Roman,serif" font-size="14.00">environment</text>
<text text-anchor="start" x="845.12" y="-711.95" font-family="Times New Roman,serif" font-size="14.00">initialState</text>
<polyline fill="none" stroke="black" points="769.62,-704.75 1060.12,-704.75"/>
<text text-anchor="start" x="777.62" y="-688.45" font-family="Times New Roman,serif" font-style="italic" font-size="14.00">getActionsFromState</text>
<text text-anchor="start" x="891.62" y="-688.45" font-family="Times New Roman,serif" font-size="14.00">(state: State): list[Action]</text>
<text text-anchor="start" x="777.62" y="-674.45" font-family="Times New Roman,serif" font-style="italic" font-size="14.00">transitionModel</text>
<text text-anchor="start" x="865.38" y="-674.45" font-family="Times New Roman,serif" font-size="14.00">(state: State, action: Action): State</text>
</g>
<!-- ai.core.environment.Environment&#45;&gt;ai.core.task.Task -->
<g id="edge10" class="edge">
<title>ai.core.environment.Environment&#45;&gt;ai.core.task.Task</title>
<path fill="none" stroke="black" d="M651.88,-439.7C680.67,-471.05 723.55,-517.77 760.88,-558.5 791.18,-591.57 824.82,-628.32 852.91,-659.01"/>
<polygon fill="none" stroke="black" points="852.73,-658.82 859.73,-660.54 860.83,-667.67 853.83,-665.94 852.73,-658.82"/>
<text text-anchor="middle" x="776.07" y="-527.2" font-family="Times New Roman,serif" font-size="14.00" fill="green">environment</text>
</g>
<!-- ai.games.game.Game -->
<g id="node4" class="node">
<title>ai.games.game.Game</title>
<polygon fill="none" stroke="black" points="284.25,-366 284.25,-439.5 467.5,-439.5 467.5,-366 284.25,-366"/>
<text text-anchor="start" x="359.38" y="-422.2" font-family="Times New Roman,serif" font-size="14.00">Game</text>
<polyline fill="none" stroke="black" points="284.25,-415 467.5,-415"/>
<text text-anchor="start" x="303.12" y="-397.7" font-family="Times New Roman,serif" font-size="14.00">players : Sequence[Player]</text>
<polyline fill="none" stroke="black" points="284.25,-390.5 467.5,-390.5"/>
<text text-anchor="start" x="292.25" y="-374.2" font-family="Times New Roman,serif" font-style="italic" font-size="14.00">terminalTest</text>
<text text-anchor="start" x="359.75" y="-374.2" font-family="Times New Roman,serif" font-size="14.00">(state: State): bool</text>
</g>
<!-- ai.games.gameTheory.GameTheory -->
<g id="node5" class="node">
<title>ai.games.gameTheory.GameTheory</title>
<polygon fill="none" stroke="black" points="0,-625 0,-830.5 751.75,-830.5 751.75,-625 0,-625"/>
<text text-anchor="start" x="339.88" y="-813.2" font-family="Times New Roman,serif" font-size="14.00">GameTheory</text>
<polyline fill="none" stroke="black" points="0,-806 751.75,-806"/>
<text text-anchor="start" x="278.75" y="-788.7" font-family="Times New Roman,serif" font-size="14.00">currentState</text>
<text text-anchor="start" x="278.75" y="-772.2" font-family="Times New Roman,serif" font-size="14.00">game</text>
<text text-anchor="start" x="278.75" y="-755.7" font-family="Times New Roman,serif" font-size="14.00">waitTurnEvent : Optional[th.Event]</text>
<polyline fill="none" stroke="black" points="0,-748.5 751.75,-748.5"/>
<text text-anchor="start" x="8" y="-731.2" font-family="Times New Roman,serif" font-size="14.00">maxUtility(game: Game, player: Player, state: State, limit: float): float</text>
<text text-anchor="start" x="8" y="-714.7" font-family="Times New Roman,serif" font-size="14.00">maxUtilityAlphaBeta(game: Game, player: Player, state: State, maxSoFar: float, minSoFar: float, visited: set[State], limit: float): float</text>
<text text-anchor="start" x="8" y="-698.2" font-family="Times New Roman,serif" font-size="14.00">minUtility(game: Game, player: Player, state: State, limit: float): float</text>
<text text-anchor="start" x="8" y="-681.7" font-family="Times New Roman,serif" font-size="14.00">minUtilityAlphaBeta(game: Game, player: Player, state: State, maxSoFar: float, minSoFar: float, visited: set[State], limit: float): float</text>
<text text-anchor="start" x="8" y="-665.2" font-family="Times New Roman,serif" font-size="14.00">minimaxAlphaBetaDecision(game: Game, player: Player, visited: set[State], limit: float): Optional[Action]</text>
<text text-anchor="start" x="8" y="-648.7" font-family="Times New Roman,serif" font-size="14.00">minimaxDecision(game: Game, player: Player, limit: float): Optional[Action]</text>
<text text-anchor="start" x="8" y="-632.2" font-family="Times New Roman,serif" font-size="14.00">startGame()</text>
</g>
<!-- ai.games.game.Game&#45;&gt;ai.games.gameTheory.GameTheory -->
<g id="edge16" class="edge">
<title>ai.games.game.Game&#45;&gt;ai.games.gameTheory.GameTheory</title>
<path fill="none" stroke="black" d="M375.88,-439.86C375.88,-481.36 375.88,-551.53 375.88,-612.09"/>
<polygon fill="none" stroke="black" points="375.88,-611.95 379.88,-617.95 375.88,-623.95 371.88,-617.95 375.88,-611.95"/>
<text text-anchor="middle" x="390.88" y="-527.2" font-family="Times New Roman,serif" font-size="14.00" fill="green">game</text>
</g>
<!-- ai.games.game.Game&#45;&gt;ai.core.task.Task -->
<g id="edge3" class="edge">
<title>ai.games.game.Game&#45;&gt;ai.core.task.Task</title>
<path fill="none" stroke="black" d="M402.08,-439.87C420.45,-462.45 447,-490.17 476.88,-506 590.3,-566.09 648.61,-496.26 760.88,-558.5 804.62,-582.75 842.68,-624.02 870.02,-659.62"/>
<polygon fill="none" stroke="black" points="867.02,-661.45 875.83,-667.32 872.61,-657.23 867.02,-661.45"/>
</g>
<!-- ai.core.taskSolver.TaskSolver -->
<g id="node17" class="node">
<title>ai.core.taskSolver.TaskSolver</title>
<polygon fill="none" stroke="black" points="876.5,-950 876.5,-1023.5 953.25,-1023.5 953.25,-950 876.5,-950"/>
<text text-anchor="start" x="884.5" y="-1006.2" font-family="Times New Roman,serif" font-size="14.00">TaskSolver</text>
<polyline fill="none" stroke="black" points="876.5,-999 953.25,-999"/>
<text text-anchor="start" x="904" y="-981.7" font-family="Times New Roman,serif" font-size="14.00">task</text>
<polyline fill="none" stroke="black" points="876.5,-974.5 953.25,-974.5"/>
<text text-anchor="start" x="913" y="-957.2" font-family="Times New Roman,serif" font-size="14.00"> </text>
</g>
<!-- ai.games.gameTheory.GameTheory&#45;&gt;ai.core.taskSolver.TaskSolver -->
<g id="edge4" class="edge">
<title>ai.games.gameTheory.GameTheory&#45;&gt;ai.core.taskSolver.TaskSolver</title>
<path fill="none" stroke="black" d="M590.06,-830.88C691.42,-879.2 803.68,-932.73 866.12,-962.5"/>
<polygon fill="none" stroke="black" points="864.54,-965.63 875.07,-966.77 867.55,-959.31 864.54,-965.63"/>
</g>
<!-- ai.problems.goal.Goal -->
<g id="node6" class="node">
<title>ai.problems.goal.Goal</title>
<polygon fill="none" stroke="black" points="1377.25,-179.5 1377.25,-228.5 1578.5,-228.5 1578.5,-179.5 1377.25,-179.5"/>
<text text-anchor="start" x="1464.75" y="-211.2" font-family="Times New Roman,serif" font-size="14.00">Goal</text>
<polyline fill="none" stroke="black" points="1377.25,-204 1578.5,-204"/>
<polyline fill="none" stroke="black" points="1377.25,-204 1578.5,-204"/>
<text text-anchor="start" x="1385.25" y="-187.7" font-family="Times New Roman,serif" font-style="italic" font-size="14.00">isGoalAchieved</text>
<text text-anchor="start" x="1470.75" y="-187.7" font-family="Times New Roman,serif" font-size="14.00">(state: State): bool</text>
</g>
<!-- ai.problems.problem.Problem -->
<g id="node10" class="node">
<title>ai.problems.problem.Problem</title>
<polygon fill="none" stroke="black" points="1328.88,-353.25 1328.88,-452.25 1626.88,-452.25 1626.88,-353.25 1328.88,-353.25"/>
<text text-anchor="start" x="1454.62" y="-434.95" font-family="Times New Roman,serif" font-size="14.00">Problem</text>
<polyline fill="none" stroke="black" points="1328.88,-427.75 1626.88,-427.75"/>
<text text-anchor="start" x="1466.25" y="-410.45" font-family="Times New Roman,serif" font-size="14.00">goal</text>
<polyline fill="none" stroke="black" points="1328.88,-403.25 1626.88,-403.25"/>
<text text-anchor="start" x="1336.88" y="-386.95" font-family="Times New Roman,serif" font-style="italic" font-size="14.00">heuristicDistFunction</text>
<text text-anchor="start" x="1455.38" y="-386.95" font-family="Times New Roman,serif" font-size="14.00">(state: State): float</text>
<text text-anchor="start" x="1336.88" y="-372.95" font-family="Times New Roman,serif" font-size="14.00">isGoalAchieved(state: State): bool</text>
<text text-anchor="start" x="1336.88" y="-358.95" font-family="Times New Roman,serif" font-style="italic" font-size="14.00">pathCostFunction</text>
<text text-anchor="start" x="1434.38" y="-358.95" font-family="Times New Roman,serif" font-size="14.00">(state: State, action: Action): float</text>
</g>
<!-- ai.problems.goal.Goal&#45;&gt;ai.problems.problem.Problem -->
<g id="edge17" class="edge">
<title>ai.problems.goal.Goal&#45;&gt;ai.problems.problem.Problem</title>
<path fill="none" stroke="black" d="M1477.88,-228.73C1477.88,-256.16 1477.88,-302.37 1477.88,-340.13"/>
<polygon fill="none" stroke="black" points="1477.88,-340.19 1481.88,-346.19 1477.88,-352.19 1473.88,-346.19 1477.88,-340.19"/>
<text text-anchor="middle" x="1489.5" y="-268.2" font-family="Times New Roman,serif" font-size="14.00" fill="green">goal</text>
</g>
<!-- ai.core.sensor.Perception -->
<g id="node7" class="node">
<title>ai.core.sensor.Perception</title>
<polygon fill="none" stroke="black" points="956,-37.5 956,-86.5 1029.75,-86.5 1029.75,-37.5 956,-37.5"/>
<text text-anchor="start" x="964" y="-69.2" font-family="Times New Roman,serif" font-size="14.00">Perception</text>
<polyline fill="none" stroke="black" points="956,-62 1029.75,-62"/>
<polyline fill="none" stroke="black" points="956,-62 1029.75,-62"/>
<text text-anchor="start" x="991" y="-44.7" font-family="Times New Roman,serif" font-size="14.00"> </text>
</g>
<!-- ai.core.state.State -->
<g id="node14" class="node">
<title>ai.core.state.State</title>
<polygon fill="none" stroke="black" points="965.88,-179.5 965.88,-228.5 1019.88,-228.5 1019.88,-179.5 965.88,-179.5"/>
<text text-anchor="start" x="979.38" y="-211.2" font-family="Times New Roman,serif" font-size="14.00">State</text>
<polyline fill="none" stroke="black" points="965.88,-204 1019.88,-204"/>
<polyline fill="none" stroke="black" points="965.88,-204 1019.88,-204"/>
<text text-anchor="start" x="991" y="-186.7" font-family="Times New Roman,serif" font-size="14.00"> </text>
</g>
<!-- ai.core.sensor.Perception&#45;&gt;ai.core.state.State -->
<g id="edge1" class="edge">
<title>ai.core.sensor.Perception&#45;&gt;ai.core.state.State</title>
<path fill="none" stroke="black" d="M992.88,-86.75C992.88,-108.97 992.88,-142.46 992.88,-167.79"/>
<polygon fill="none" stroke="black" points="989.38,-167.62 992.88,-177.62 996.38,-167.62 989.38,-167.62"/>
</g>
<!-- ai.games.player.Player -->
<g id="node8" class="node">
<title>ai.games.player.Player</title>
<polygon fill="none" stroke="black" points="1605.25,-161.5 1605.25,-246.5 1878.5,-246.5 1878.5,-161.5 1605.25,-161.5"/>
<text text-anchor="start" x="1724.62" y="-229.2" font-family="Times New Roman,serif" font-size="14.00">Player</text>
<polyline fill="none" stroke="black" points="1605.25,-222 1878.5,-222"/>
<text text-anchor="start" x="1714.5" y="-204.7" font-family="Times New Roman,serif" font-size="14.00">name : str</text>
<polyline fill="none" stroke="black" points="1605.25,-197.5 1878.5,-197.5"/>
<text text-anchor="start" x="1613.25" y="-181.2" font-family="Times New Roman,serif" font-style="italic" font-size="14.00">chooseAction</text>
<text text-anchor="start" x="1686" y="-181.2" font-family="Times New Roman,serif" font-size="14.00">(game: &#39;Game&#39;): Optional[Action]</text>
<text text-anchor="start" x="1613.25" y="-167.2" font-family="Times New Roman,serif" font-style="italic" font-size="14.00">getUtility</text>
<text text-anchor="start" x="1664.25" y="-167.2" font-family="Times New Roman,serif" font-size="14.00">(state: State): float</text>
</g>
<!-- ai.games.player.Player&#45;&gt;ai.core.agent.Agent -->
<g id="edge5" class="edge">
<title>ai.games.player.Player&#45;&gt;ai.core.agent.Agent</title>
<path fill="none" stroke="black" d="M1750.78,-246.73C1756.99,-275.79 1765.32,-314.85 1772.08,-346.5"/>
<polygon fill="none" stroke="black" points="1768.57,-346.82 1774.08,-355.87 1775.42,-345.36 1768.57,-346.82"/>
</g>
<!-- ai.games.player.PlayerAI -->
<g id="node9" class="node">
<title>ai.games.player.PlayerAI</title>
<polygon fill="none" stroke="black" points="1604.5,-0.5 1604.5,-123.5 1879.25,-123.5 1879.25,-0.5 1604.5,-0.5"/>
<text text-anchor="start" x="1717.5" y="-106.2" font-family="Times New Roman,serif" font-size="14.00">PlayerAI</text>
<polyline fill="none" stroke="black" points="1604.5,-99 1879.25,-99"/>
<text text-anchor="start" x="1678.5" y="-81.7" font-family="Times New Roman,serif" font-size="14.00">decisionAlgorithm : str</text>
<text text-anchor="start" x="1678.5" y="-65.2" font-family="Times New Roman,serif" font-size="14.00">limit : float</text>
<text text-anchor="start" x="1678.5" y="-48.7" font-family="Times New Roman,serif" font-size="14.00">name : str</text>
<text text-anchor="start" x="1678.5" y="-32.2" font-family="Times New Roman,serif" font-size="14.00">visited : set</text>
<polyline fill="none" stroke="black" points="1604.5,-25 1879.25,-25"/>
<text text-anchor="start" x="1612.5" y="-7.7" font-family="Times New Roman,serif" font-size="14.00">chooseAction(game: &#39;Game&#39;): Optional[Action]</text>
</g>
<!-- ai.games.player.PlayerAI&#45;&gt;ai.games.player.Player -->
<g id="edge6" class="edge">
<title>ai.games.player.PlayerAI&#45;&gt;ai.games.player.Player</title>
<path fill="none" stroke="black" d="M1741.88,-124C1741.88,-132.61 1741.88,-141.41 1741.88,-149.86"/>
<polygon fill="none" stroke="black" points="1738.38,-149.6 1741.88,-159.6 1745.38,-149.6 1738.38,-149.6"/>
</g>
<!-- ai.problems.problem.Problem&#45;&gt;ai.problems.problemSolving.ProblemSolving -->
<g id="edge18" class="edge">
<title>ai.problems.problem.Problem&#45;&gt;ai.problems.problemSolving.ProblemSolving</title>
<path fill="none" stroke="black" d="M1479.23,-452.46C1479.95,-478.12 1480.87,-511.37 1481.83,-545.82"/>
<polygon fill="none" stroke="black" points="1481.83,-545.66 1485.99,-551.54 1482.16,-557.65 1478,-551.77 1481.83,-545.66"/>
<text text-anchor="middle" x="1504.44" y="-527.2" font-family="Times New Roman,serif" font-size="14.00" fill="green">problem</text>
</g>
<!-- ai.problems.problem.Problem&#45;&gt;ai.core.task.Task -->
<g id="edge7" class="edge">
<title>ai.problems.problem.Problem&#45;&gt;ai.core.task.Task</title>
<path fill="none" stroke="black" d="M1419.37,-452.59C1378.91,-483.43 1322.4,-521.01 1265.88,-540.5 1182.76,-569.16 1147.64,-519.44 1068.88,-558.5 1023.58,-580.96 985.16,-622.87 958.02,-659.24"/>
<polygon fill="none" stroke="black" points="955.33,-656.99 952.26,-667.13 960.98,-661.12 955.33,-656.99"/>
</g>
<!-- ai.problems.problemNode.ProblemNode -->
<g id="node11" class="node">
<title>ai.problems.problemNode.ProblemNode</title>
<polygon fill="none" stroke="black" points="770,-300 770,-505.5 1215.75,-505.5 1215.75,-300 770,-300"/>
<text text-anchor="start" x="955" y="-488.2" font-family="Times New Roman,serif" font-size="14.00">ProblemNode</text>
<polyline fill="none" stroke="black" points="770,-481 1215.75,-481"/>
<text text-anchor="start" x="904.38" y="-463.7" font-family="Times New Roman,serif" font-size="14.00">action : Optional[Action]</text>
<text text-anchor="start" x="904.38" y="-447.2" font-family="Times New Roman,serif" font-size="14.00">children : list[ProblemNode]</text>
<text text-anchor="start" x="904.38" y="-430.7" font-family="Times New Roman,serif" font-size="14.00">heuristicDist : float</text>
<text text-anchor="start" x="904.38" y="-414.2" font-family="Times New Roman,serif" font-size="14.00">parent : Optional[ProblemNode]</text>
<text text-anchor="start" x="904.38" y="-397.7" font-family="Times New Roman,serif" font-size="14.00">pathCost : float</text>
<text text-anchor="start" x="904.38" y="-381.2" font-family="Times New Roman,serif" font-size="14.00">state</text>
<polyline fill="none" stroke="black" points="770,-374 1215.75,-374"/>
<text text-anchor="start" x="778" y="-356.7" font-family="Times New Roman,serif" font-size="14.00">addChild(child: ProblemNode): None</text>
<text text-anchor="start" x="778" y="-340.2" font-family="Times New Roman,serif" font-size="14.00">childNode(problem: Problem, action: Action): ProblemNode</text>
<text text-anchor="start" x="778" y="-323.7" font-family="Times New Roman,serif" font-size="14.00">comparisonValue()</text>
<text text-anchor="start" x="778" y="-307.2" font-family="Times New Roman,serif" font-size="14.00">createChild(newState: State, action: Action, problem: Problem): ProblemNode</text>
</g>
<!-- ai.problems.problemSolving.ProblemSolving&#45;&gt;ai.core.taskSolver.TaskSolver -->
<g id="edge8" class="edge">
<title>ai.problems.problemSolving.ProblemSolving&#45;&gt;ai.core.taskSolver.TaskSolver</title>
<path fill="none" stroke="black" d="M1112.53,-896.95C1053.68,-923.38 1000.37,-947.34 963.99,-963.68"/>
<polygon fill="none" stroke="black" points="962.79,-960.39 955.1,-967.68 965.66,-966.77 962.79,-960.39"/>
</g>
<!-- ai.core.sensor.Sensor -->
<g id="node13" class="node">
<title>ai.core.sensor.Sensor</title>
<polygon fill="none" stroke="black" points="1896.62,-179.5 1896.62,-228.5 2175.12,-228.5 2175.12,-179.5 1896.62,-179.5"/>
<text text-anchor="start" x="2017.5" y="-211.2" font-family="Times New Roman,serif" font-size="14.00">Sensor</text>
<polyline fill="none" stroke="black" points="1896.62,-204 2175.12,-204"/>
<polyline fill="none" stroke="black" points="1896.62,-204 2175.12,-204"/>
<text text-anchor="start" x="1904.62" y="-187.7" font-family="Times New Roman,serif" font-style="italic" font-size="14.00">percept</text>
<text text-anchor="start" x="1945.12" y="-187.7" font-family="Times New Roman,serif" font-size="14.00">(environment: Environment): Perception</text>
</g>
<!-- ai.core.sensor.Sensor&#45;&gt;ai.core.agent.Agent -->
<g id="edge11" class="edge">
<title>ai.core.sensor.Sensor&#45;&gt;ai.core.agent.Agent</title>
<path fill="none" stroke="black" d="M2005.48,-228.73C1967.39,-258.47 1901.03,-310.28 1850.83,-349.48"/>
<polygon fill="none" stroke="black" points="1850.86,-349.45 1848.6,-356.29 1841.41,-356.83 1843.67,-349.99 1850.86,-349.45"/>
<text text-anchor="middle" x="1971.61" y="-268.2" font-family="Times New Roman,serif" font-size="14.00" fill="green">sensor</text>
</g>
<!-- ai.core.state.State&#45;&gt;ai.core.environment.Environment -->
<g id="edge12" class="edge">
<title>ai.core.state.State&#45;&gt;ai.core.environment.Environment</title>
<path fill="none" stroke="black" d="M965.48,-213.79C921.08,-228.54 831.27,-260.54 760.88,-299.5 730.5,-316.31 698.96,-338.48 673.33,-357.88"/>
<polygon fill="none" stroke="black" points="673.34,-357.87 671.01,-364.7 663.81,-365.17 666.15,-358.35 673.34,-357.87"/>
<text text-anchor="middle" x="861.36" y="-268.2" font-family="Times New Roman,serif" font-size="14.00" fill="green">currentState</text>
</g>
<!-- ai.core.state.State&#45;&gt;ai.problems.problemNode.ProblemNode -->
<g id="edge14" class="edge">
<title>ai.core.state.State&#45;&gt;ai.problems.problemNode.ProblemNode</title>
<path fill="none" stroke="black" d="M992.88,-228.73C992.88,-243.86 992.88,-264.69 992.88,-286.66"/>
<polygon fill="none" stroke="black" points="992.88,-286.8 996.88,-292.8 992.88,-298.8 988.88,-292.8 992.88,-286.8"/>
<text text-anchor="middle" x="1005.25" y="-268.2" font-family="Times New Roman,serif" font-size="14.00" fill="green">state</text>
</g>
<!-- ai.core.state.State&#45;&gt;ai.core.task.Task -->
<g id="edge13" class="edge">
<title>ai.core.state.State&#45;&gt;ai.core.task.Task</title>
<path fill="none" stroke="black" d="M1019.99,-206.74C1070.52,-211.6 1178.16,-230.03 1224.88,-299.5 1250.48,-337.58 1251.65,-468.73 1224.88,-506 1182.19,-565.41 1130.18,-518.59 1068.88,-558.5 1028.4,-584.85 991.54,-624.28 964.03,-658.35"/>
<polygon fill="none" stroke="black" points="964.19,-658.15 963.59,-665.34 956.73,-667.55 957.32,-660.37 964.19,-658.15"/>
<text text-anchor="middle" x="1273.77" y="-397.7" font-family="Times New Roman,serif" font-size="14.00" fill="green">initialState</text>
</g>
<!-- ai.core.sensor.StateSensor -->
<g id="node15" class="node">
<title>ai.core.sensor.StateSensor</title>
<polygon fill="none" stroke="black" points="1912.38,-37.5 1912.38,-86.5 2159.38,-86.5 2159.38,-37.5 1912.38,-37.5"/>
<text text-anchor="start" x="2004" y="-69.2" font-family="Times New Roman,serif" font-size="14.00">StateSensor</text>
<polyline fill="none" stroke="black" points="1912.38,-62 2159.38,-62"/>
<polyline fill="none" stroke="black" points="1912.38,-62 2159.38,-62"/>
<text text-anchor="start" x="1920.38" y="-44.7" font-family="Times New Roman,serif" font-size="14.00">percept(environment: Environment): State</text>
</g>
<!-- ai.core.sensor.StateSensor&#45;&gt;ai.core.sensor.Sensor -->
<g id="edge2" class="edge">
<title>ai.core.sensor.StateSensor&#45;&gt;ai.core.sensor.Sensor</title>
<path fill="none" stroke="black" d="M2035.88,-86.75C2035.88,-108.97 2035.88,-142.46 2035.88,-167.79"/>
<polygon fill="none" stroke="black" points="2032.38,-167.62 2035.88,-177.62 2039.38,-167.62 2032.38,-167.62"/>
</g>
<!-- ai.core.task.Task&#45;&gt;ai.core.taskSolver.TaskSolver -->
<g id="edge15" class="edge">
<title>ai.core.task.Task&#45;&gt;ai.core.taskSolver.TaskSolver</title>
<path fill="none" stroke="black" d="M914.88,-787.07C914.88,-832.33 914.88,-894.36 914.88,-937.01"/>
<polygon fill="none" stroke="black" points="914.88,-936.95 918.88,-942.95 914.88,-948.95 910.88,-942.95 914.88,-936.95"/>
<text text-anchor="middle" x="925.75" y="-918.2" font-family="Times New Roman,serif" font-size="14.00" fill="green">task</text>
</g>
</g>
</svg>
